<?xml version="1.0" encoding="UTF-8"?>
<svg id="Vrstva_2" data-name="Vrstva 2" xmlns="http://www.w3.org/2000/svg" viewBox="0 0 164.1 67.79">
  <defs>
    <style>
      .cls-1 {
        fill: none;
        stroke: #fff;
        stroke-miterlimit: 10;
        stroke-width: 2px;
      }
    </style>
  </defs>
  <g id="Vrstva_3" data-name="Vrstva 3">
    <line class="cls-1" x1="2.19" y1="66.79" x2="162.19" y2="66.79"/>
    <polyline class="cls-1" points="159.87 61.15 159.87 40.85 111.1 36.85 103.35 36.85 77.81 38.79 76.84 38.83 58.19 39.56 58.19 62.02"/>
    <line class="cls-1" x1="76.45" y1="62.79" x2="76.45" y2="38.84"/>
    <polyline class="cls-1" points="58 40.87 19 40.87 1 42.85 1 35.79 18.81 29.31 19 40.87"/>
    <line class="cls-1" x1="23.06" y1="62.79" x2="23.06" y2="40.87"/>
    <polyline class="cls-1" points="109.47 36.65 109.47 14.87 56.79 1.13 49.63 9.84 49.63 29.97 19.24 29.1"/>
    <polyline class="cls-1" points="109.03 17.02 103.48 18.47 64.35 9.47 56.79 1.13"/>
    <polyline class="cls-1" points="49.63 29.97 58 18.89 61.84 27.98 82.91 23.17 103.48 18.47"/>
    <line class="cls-1" x1="82.96" y1="22.67" x2="58.04" y2="18.39"/>
    <polyline class="cls-1" points="160.19 40.92 163.1 40.27 163.1 30.6 160.19 29.48 160.19 3.63 135.61 9.18 109.79 15 135.1 22.27 160.19 29.48"/>
    <polyline class="cls-1" points="135.61 9.18 135.29 17.39 135.1 22.27"/>
    <line class="cls-1" x1="159.87" y1="14.05" x2="135.29" y2="17.39"/>
    <line class="cls-1" x1="160.19" y1="22.27" x2="141.87" y2="24.22"/>
    <line class="cls-1" x1="111.1" y1="36.85" x2="111.1" y2="66.79"/>
    <line class="cls-1" x1="103.35" y1="36.85" x2="103.35" y2="66.79"/>
    <line class="cls-1" x1="103.35" y1="42.85" x2="83.55" y2="42.85"/>
    <line class="cls-1" x1="83.55" y1="42.85" x2="83.55" y2="59.27"/>
    <line class="cls-1" x1="83.55" y1="59.27" x2="103.35" y2="59.27"/>
    <line class="cls-1" x1="111.1" y1="42.85" x2="126.52" y2="42.85"/>
    <line class="cls-1" x1="126.52" y1="42.85" x2="126.52" y2="59.27"/>
    <line class="cls-1" x1="126.52" y1="59.27" x2="111.1" y2="59.27"/>
    <line class="cls-1" x1="118.81" y1="42.85" x2="118.81" y2="59.27"/>
    <polygon class="cls-1" points="56.79 31.53 71.68 29.31 71.68 36.85 56.79 38.24 56.79 31.53"/>
  </g>
</svg>