<?xml version="1.0" encoding="UTF-8"?>
<svg id="Vrstva_2" data-name="Vrstva 2" xmlns="http://www.w3.org/2000/svg" viewBox="0 0 109.32 83.24">
  <defs>
    <style>
      .cls-1 {
        fill: none;
        stroke: #fff;
        stroke-miterlimit: 10;
        stroke-width: 2px;
      }
    </style>
  </defs>
  <g id="Vrstva_5" data-name="Vrstva 5">
    <path class="cls-1" d="M0,82.24h107.61-3.68s0-21.87,3.68-23.42c0,0-5.23-5.61-5.42-9.29,0,0-2.9-3.1-3.48-7.35,0,0-.77-7.16,4.06-9.1,0,0-6.58-7.74-6-10.06s2.13-8.13,2.13-8.13c0,0-6.77-7.35,1.16-13.35l-34.45,4.84-27.87,13.55s-5.23,1.74-6.97,7.74l-23.42,9.87.19,44.71"/>
    <polyline class="cls-1" points="36.24 20.64 36.24 27.46 42.58 24.05 42.58 62.3 27.29 63.85 27.29 70.43 46.05 70.43"/>
    <line class="cls-1" x1="42.58" y1="74.3" x2="49.74" y2="74.3"/>
    <line class="cls-1" x1="36.67" y1="77.59" x2="49.74" y2="77.59"/>
    <polyline class="cls-1" points="13.55 59.59 13.55 56.3 38.71 49.91"/>
    <polyline class="cls-1" points="13.55 51.27 13.55 45.53 31.74 41.88 36.67 38.69"/>
    <polyline class="cls-1" points="65.61 6.36 65.61 16.43 49.74 20.64 50.71 61.91 84.58 59.59 84.58 69.66 51.29 70.43"/>
    <polyline class="cls-1" points="55.94 38.4 55.94 32.69 76.45 29.98 96.93 24.31"/>
    <polyline class="cls-1" points="55.94 54.75 55.94 47.59 81.29 44.98 98.71 42.17"/>
  </g>
</svg>