<?xml version="1.0" encoding="UTF-8"?>
<svg id="Vrstva_2" data-name="Vrstva 2" xmlns="http://www.w3.org/2000/svg" viewBox="0 0 162.6 70.4">
  <defs>
    <style>
      .cls-1 {
        fill: none;
        stroke: #fff;
        stroke-miterlimit: 10;
        stroke-width: 2px;
      }
    </style>
  </defs>
  <g id="Vrstva_5" data-name="Vrstva 5">
    <path class="cls-1" d="M.27,69.17c.24.07,3.34.12,8.52.16,33.45.23,153.81-.16,153.81-.16"/>
    <polyline class="cls-1" points="8.79 69.33 8.27 23.23 35.63 13.69 81.44 18.59 89.31 17.04 139.11 22.46 90.08 3.62 90.34 11.88"/>
    <polyline class="cls-1" points="89.5 3.02 81.44 7.23 81.44 14.2 81.44 7.23 45.44 1.04 3.37 21.94"/>
    <polyline class="cls-1" points="20.15 57.56 20.15 46.2 86.21 38.2 156.92 38.2"/>
    <line class="cls-1" x1="143.76" y1="38.2" x2="143.76" y2="69.4"/>
    <line class="cls-1" x1="123.63" y1="38.2" x2="123.63" y2="69.4"/>
    <line class="cls-1" x1="99.11" y1="38.2" x2="99.11" y2="69.17"/>
    <line class="cls-1" x1="83.61" y1="38.52" x2="83.61" y2="69.17"/>
    <line class="cls-1" x1="41.25" y1="43.65" x2="41.25" y2="69.17"/>
    <rect class="cls-1" x="51.89" y="50.85" width="18.84" height="18.32"/>
    <polyline class="cls-1" points="14.21 47.88 11.37 47.88 11.37 57.56"/>
    <polyline class="cls-1" points="14.21 26.59 11.37 26.59 11.37 36.27"/>
    <polyline class="cls-1" points="22.98 23.77 20.15 23.77 20.15 33.44"/>
    <polyline class="cls-1" points="33.31 20.41 30.47 20.41 30.47 30.09"/>
    <polyline class="cls-1" points="46.73 20.41 43.89 20.41 43.89 30.09"/>
    <polygon class="cls-1" points="51.89 20.41 71.76 21.94 71.76 28.6 51.89 27.33 51.89 20.41"/>
    <polyline class="cls-1" points="61.31 33.44 99.11 27.33 112.5 28.43 149.18 31.43 149.18 38.52"/>
    <polyline class="cls-1" points="98.11 27.33 98.11 22.82 104.69 22.82 104.69 27.33"/>
    <polygon class="cls-1" points="112.73 24.51 117.76 24.51 117.76 28.23 112.18 28.1 112.73 24.51"/>
    <polygon class="cls-1" points="125.11 26.37 129.57 26.37 129.57 29.82 124.61 29.42 125.11 26.37"/>
  </g>
</svg>