<?xml version="1.0" encoding="UTF-8" standalone="no"?>
<!-- Created with Inkscape (http://www.inkscape.org/) -->
<svg
   xmlns:dc="http://purl.org/dc/elements/1.1/"
   xmlns:cc="http://web.resource.org/cc/"
   xmlns:rdf="http://www.w3.org/1999/02/22-rdf-syntax-ns#"
   xmlns:svg="http://www.w3.org/2000/svg"
   xmlns="http://www.w3.org/2000/svg"
   xmlns:sodipodi="http://sodipodi.sourceforge.net/DTD/sodipodi-0.dtd"
   xmlns:inkscape="http://www.inkscape.org/namespaces/inkscape"
   version="1.0"
   width="732.45544"
   height="854.75433"
   id="svg11463"
   sodipodi:version="0.32"
   inkscape:version="0.45.1"
   sodipodi:docname="Tatenice.svg"
   inkscape:output_extension="org.inkscape.output.svg.inkscape"
   sodipodi:docbase="D:\Dokumenty\Tomáš\Heraldika\Obecní\UO">
  <metadata
     id="metadata8">
    <rdf:RDF>
      <cc:Work
         rdf:about="">
        <dc:format>image/svg+xml</dc:format>
        <dc:type
           rdf:resource="http://purl.org/dc/dcmitype/StillImage" />
        <dc:title>COA-CZ Tátenice (reg. UO)</dc:title>
        <dc:date>06-2007</dc:date>
        <dc:creator>
          <cc:Agent>
            <dc:title>Tomáš Urban</dc:title>
          </cc:Agent>
        </dc:creator>
        <dc:publisher>
          <cc:Agent>
            <dc:title>tomas.urban(at)email.cz</dc:title>
          </cc:Agent>
        </dc:publisher>
      </cc:Work>
    </rdf:RDF>
  </metadata>
  <sodipodi:namedview
     inkscape:window-height="725"
     inkscape:window-width="757"
     inkscape:pageshadow="2"
     inkscape:pageopacity="0.0"
     guidetolerance="10.0"
     gridtolerance="10.0"
     objecttolerance="10.0"
     borderopacity="1.0"
     bordercolor="#666666"
     pagecolor="#ffffff"
     id="base"
     width="900px"
     height="1000px"
     inkscape:zoom="0.574"
     inkscape:cx="427.35192"
     inkscape:cy="419.26159"
     inkscape:window-x="298"
     inkscape:window-y="6"
     inkscape:current-layer="layer3" />
  <defs
     id="defs11466" />
  <g
     id="g19635"
     transform="matrix(3.3371499,0,0,3.8516195,1433.6338,-391.34636)"
     style="stroke:#333333;stroke-width:0.27892694;stroke-opacity:0.6">
    <g
       id="g18159"
       style="stroke:#333333;stroke-width:0.27892694;stroke-opacity:0.6" />
  </g>
  <text
     xml:space="preserve"
     style="font-size:35.85168457px;font-style:normal;font-variant:normal;font-weight:normal;font-stretch:normal;text-align:center;line-height:100%;writing-mode:lr-tb;text-anchor:middle;fill:#000000;fill-opacity:1;stroke:none;stroke-width:1px;stroke-linecap:butt;stroke-linejoin:miter;stroke-opacity:1;font-family:Calibri"
     x="2322.0681"
     y="985.15625"
     id="text6536"
     sodipodi:linespacing="100%"
     transform="scale(0.930821,1.0743204)"><tspan
       sodipodi:role="line"
       id="tspan6538"
       x="2322.0681"
       y="985.15625" /></text>
  <g
     inkscape:groupmode="layer"
     id="layer3"
     inkscape:label="Znak"
     style="display:inline"
     transform="translate(-107.63987,-62.169865)">
    <g
       style="stroke:#333333;stroke-width:0.27892694;stroke-opacity:0.6"
       id="g2577"
       transform="matrix(3.3371499,0,0,3.8516195,257.709,-643.54934)" />
    <text
       xml:space="preserve"
       style="font-size:35.85168457px;font-style:normal;font-variant:normal;font-weight:normal;font-stretch:normal;text-align:center;line-height:100%;writing-mode:lr-tb;text-anchor:middle;fill:#000000;fill-opacity:1;stroke:none;stroke-width:1px;stroke-linecap:butt;stroke-linejoin:miter;stroke-opacity:1;font-family:Calibri"
       x="1058.748"
       y="750.40039"
       id="text2579"
       sodipodi:linespacing="100%"
       transform="scale(0.930821,1.0743204)"><tspan
         sodipodi:role="line"
         id="tspan2581"
         x="1058.748"
         y="750.40039" /></text>
    <g
       style="stroke:#333333;stroke-width:0.27892694;stroke-opacity:0.6"
       transform="matrix(3.3371499,0,0,3.8516195,-587.96832,-764.24493)"
       id="g2341">
      <g
         style="stroke:#333333;stroke-width:0.27892694;stroke-opacity:0.6"
         id="g2343" />
    </g>
    <text
       transform="scale(0.930821,1.0743204)"
       sodipodi:linespacing="100%"
       id="text2345"
       y="638.05438"
       x="150.21956"
       style="font-size:35.85168457px;font-style:normal;font-variant:normal;font-weight:normal;font-stretch:normal;text-align:center;line-height:100%;writing-mode:lr-tb;text-anchor:middle;fill:#000000;fill-opacity:1;stroke:none;stroke-width:1px;stroke-linecap:butt;stroke-linejoin:miter;stroke-opacity:1;font-family:Calibri"
       xml:space="preserve"><tspan
         y="638.05438"
         x="150.21956"
         id="tspan2347"
         sodipodi:role="line" /></text>
    <path
       id="path3508"
       d="M 474.41232,913.91492 C 474.52752,913.91502 474.64262,913.91502 474.75772,913.91502 C 674.73462,913.91512 837.08552,781.91612 837.08562,582.98442 L 836.36562,65.160693 L 474.40402,65.160693 L 474.41232,913.91492 z "
       style="fill:#c80000;fill-opacity:1;stroke:#000000;stroke-width:3.29999995;stroke-miterlimit:4;stroke-dasharray:none;stroke-opacity:1;display:inline" />
    <path
       sodipodi:nodetypes="ccccccccccccc"
       id="rect3774"
       d="M 625.59984,130.85473 C 639.06145,160.6058 637.98453,217.47163 637.98453,217.47163 C 637.98453,217.47163 594.41421,223.21307 563.7217,201.81317 L 563.7217,262.91594 C 594.41421,240.99411 637.98453,246.73556 637.98453,246.73556 L 637.98453,662.99594 L 664.97916,662.99594 L 664.97916,246.73556 C 664.97916,246.73556 713.93415,243.08189 739.24202,257.17452 L 739.24202,203.90097 C 713.39568,219.55943 664.97916,217.47163 664.97916,217.47163 C 664.97916,217.47163 663.90226,160.6058 682.21005,130.85473 L 625.59984,130.85473 z "
       style="fill:#ffc800;fill-opacity:1;fill-rule:evenodd;stroke:#000000;stroke-width:3;stroke-linecap:round;stroke-linejoin:round;stroke-miterlimit:4;stroke-dasharray:none;stroke-dashoffset:0;stroke-opacity:1;display:inline" />
    <rect
       style="opacity:1;fill:#ffc800;fill-opacity:1;fill-rule:evenodd;stroke:#000000;stroke-width:3;stroke-linecap:round;stroke-linejoin:round;stroke-miterlimit:4;stroke-dasharray:none;stroke-dashoffset:0;stroke-opacity:1;display:inline"
       id="rect3756"
       width="69.910271"
       height="22.149788"
       x="612.92456"
       y="336.7056"
       ry="11.074894" />
    <path
       sodipodi:nodetypes="cccccc"
       id="path3538"
       d="M 474.42708,65.132676 L 110.6531,65.132676 L 110.6531,65.132676 L 112.19069,582.95648 C 112.19067,790.45103 280.91709,913.74046 474.43538,913.88696 L 474.42708,65.132676 z "
       style="fill:#ffc800;fill-opacity:1;stroke:#000000;stroke-width:3.29999995;stroke-miterlimit:4;stroke-dasharray:none;stroke-opacity:1;display:inline" />
    <g
       transform="matrix(0.8351892,0.5499627,-0.5499627,0.8351892,199.04966,-287.41895)"
       id="g3788"
       style="fill:#000000;fill-opacity:1;stroke:#ffc800;stroke-width:1;stroke-opacity:1;display:inline">
      <path
         style="fill:#000000;fill-opacity:1;fill-rule:evenodd;stroke:#ffc800;stroke-width:3;stroke-linecap:butt;stroke-linejoin:miter;stroke-miterlimit:4;stroke-dasharray:none;stroke-opacity:1"
         d="M 342.77088,463.95413 L 359.50218,441.7983 C 422.93657,490.13526 597.48716,587.34785 597.48716,587.34785 L 587.15652,607.50395 L 342.77088,463.95413 z "
         id="path3641"
         sodipodi:nodetypes="ccccc" />
      <path
         style="fill:#000000;fill-opacity:1;fill-rule:evenodd;stroke:#ffc800;stroke-width:3;stroke-linecap:butt;stroke-linejoin:miter;stroke-miterlimit:4;stroke-dasharray:none;stroke-opacity:1"
         d="M 330.66736,542.54521 C 329.22968,529.37619 329.29127,511.37953 330.82998,495.05592 C 331.91728,483.5208 331.72395,481.19514 329.55852,479.76181 C 326.29892,477.60425 322.39691,471.90394 326.92425,467.10411 C 330.00524,463.83773 333.99665,463.2839 340.38649,466.88154 C 343.50869,468.63941 346.40321,470.12572 346.56824,469.87637 L 365.05111,441.95292 L 318.92584,411.42204 L 313.97433,418.90263 L 302.06577,436.89382 L 298.0521,442.91623 C 286.01943,460.95633 261.36203,483.54941 245.96214,490.64524 C 243.18809,491.92341 240.90072,493.53725 240.8791,494.23149 C 240.79136,497.04961 260.51829,515.30023 277.54442,528.15283 C 286.81299,535.14943 313.18868,550.22451 322.02031,553.57312 C 331.68671,556.63217 331.31219,556.84493 330.66736,542.54521 z "
         id="Axe" />
    </g>
    <g
       style="display:inline"
       id="g3771"
       transform="matrix(0.9865049,0.2064678,-0.1916576,1.0627365,111.63368,-62.705434)">
      <g
         id="g3775">
        <path
           style="fill:#000000;fill-opacity:1;fill-rule:evenodd;stroke:#ffc800;stroke-width:2.87616396;stroke-linecap:butt;stroke-linejoin:miter;stroke-miterlimit:4;stroke-dasharray:none;stroke-opacity:1"
           d="M 339.83863,275.61543 L 313.67995,266.31271 C 283.46652,337.9905 216.19327,476.97936 191.51759,513.8712 L 214.67743,529.90967 C 228.52317,495.12187 322.40677,308.01361 339.83863,275.61543 z "
           id="path3763"
           sodipodi:nodetypes="ccccc" />
        <rect
           style="opacity:1;fill:#000000;fill-opacity:1;fill-rule:evenodd;stroke:#ffc800;stroke-width:2.87847781;stroke-linecap:round;stroke-linejoin:round;stroke-miterlimit:4;stroke-dasharray:none;stroke-dashoffset:0;stroke-opacity:1"
           id="rect3769"
           width="119.86012"
           height="62.454296"
           x="357.06033"
           y="65.349228"
           ry="9.3389587"
           transform="matrix(0.9033215,0.4289641,-0.47948,0.8775528,0,0)" />
      </g>
    </g>
    <path
       sodipodi:nodetypes="cscc"
       id="path3351"
       d="M 113.44699,613.02802 C 129.69002,802.6075 291.0679,914.11982 474.6819,914.11982 C 663.8618,914.11982 819.36781,795.28102 835.59862,613.02178 L 113.44699,613.02802 z "
       style="fill:#00c800;fill-opacity:1;stroke:#000000;stroke-width:3.3097086;stroke-miterlimit:4;stroke-dasharray:none;stroke-opacity:1;display:inline" />
    <path
       d="M 110.63987,65.169865 L 112.17744,582.99361 C 112.17744,790.61159 281.10465,913.92421 474.76753,913.92421 C 674.74432,913.92421 837.09522,781.9253 837.09532,582.99361 L 836.37532,65.169865 L 110.63987,65.169865 z "
       style="fill:none;fill-opacity:1;stroke:#000000;stroke-width:6;stroke-miterlimit:4;stroke-dasharray:none;stroke-opacity:1;display:inline"
       id="path5010" />
  </g>
</svg>
